<svg width="743" height="186" viewBox="0 0 743 186" fill="none" xmlns="http://www.w3.org/2000/svg">
<path d="M258.197 45.6577H214.791V70.8638H253.581V79.3023H214.791V105.604H259.625V113.933H206V37.2192H258.197V45.6577Z" fill="black"/>
<path d="M294.06 105.604H327.796V113.933H285.269V37.2192H294.06V105.604Z" fill="black"/>
<path d="M401.926 45.6577H358.521V70.8638H397.311V79.3023H358.521V105.604H403.355V113.933H349.73V37.2192H401.926V45.6577Z" fill="black"/>
<path d="M461.856 37C472.405 37 482.624 41.2741 489.987 48.1783L484.712 54.8634C478.778 48.8359 470.427 45.2194 461.966 45.2194C444.603 45.2194 430.648 58.5895 430.648 75.4666C430.648 92.2341 444.603 105.714 461.966 105.714C470.427 105.714 478.668 102.207 484.712 96.5082L490.097 102.536C482.515 109.659 472.185 114.372 461.526 114.372C439.329 114.372 421.747 97.1657 421.747 75.4666C421.747 53.9867 439.548 37 461.856 37Z" fill="black"/>
<path d="M562.205 45.6577H537.04V113.933H528.249V45.6577H503.195V37.2192H562.205V45.6577Z" fill="black"/>
<path d="M632.93 113.933L616.997 89.4943C615.348 89.6039 613.59 89.7135 611.832 89.7135H591.393V113.933H582.602V37.2192H611.832C631.062 37.2192 642.161 46.644 642.161 62.9732C642.161 75.6858 636.007 84.2339 624.908 87.8504L642.93 113.933H632.93ZM591.393 81.2749H611.832C625.788 81.2749 633.699 75.1378 633.699 63.1924C633.699 51.5757 625.788 45.6577 611.832 45.6577H591.393V81.2749Z" fill="black"/>
<path d="M702.781 37C725.198 37 743 53.9867 743 75.5762C743 97.1657 725.198 114.372 702.781 114.372C680.254 114.372 662.452 97.1657 662.452 75.5762C662.452 53.8771 680.254 37 702.781 37ZM702.781 45.3289C685.639 45.3289 671.353 58.6991 671.353 75.5762C671.353 92.4533 685.639 105.933 702.781 105.933C719.924 105.933 733.989 92.4533 733.989 75.5762C733.989 58.6991 719.924 45.3289 702.781 45.3289Z" fill="black"/>
<path d="M264.341 143.104H253.311V150.518H263.193V152.838H253.311V161.879H250.894V140.783H264.341V143.104Z" fill="black"/>
<path d="M318.115 140.723C324.28 140.723 329.176 145.394 329.176 151.331C329.176 157.268 324.28 162 318.115 162C311.92 162 307.025 157.268 307.025 151.331C307.025 145.364 311.92 140.723 318.115 140.723ZM318.115 143.013C313.401 143.013 309.473 146.69 309.473 151.331C309.473 155.972 313.401 159.679 318.115 159.679C322.83 159.679 326.698 155.972 326.698 151.331C326.698 146.69 322.83 143.013 318.115 143.013Z" fill="black"/>
<path d="M391.985 140.783V153.2C391.985 158.685 388.661 162 383.131 162C377.571 162 374.216 158.685 374.216 153.2V140.783H376.634V153.2C376.634 157.299 379.112 159.679 383.131 159.679C387.15 159.679 389.568 157.299 389.568 153.2V140.783H391.985Z" fill="black"/>
<path d="M456.581 161.879H454.103L441.411 144.942V161.879H438.994V140.783H441.502L454.194 157.751V140.783H456.581V161.879Z" fill="black"/>
<path d="M517.47 143.104H510.55V161.879H508.133V143.104H501.243V140.783H517.47V143.104Z" fill="black"/>
<path d="M573.472 156.545H561.928L559.571 161.879H557.003L566.491 140.783H569L578.458 161.879H575.829L573.472 156.545ZM572.445 154.224L567.67 143.526L562.956 154.224H572.445Z" fill="black"/>
<path d="M625.291 161.879H622.873V140.783H625.291V161.879Z" fill="black"/>
<path d="M690.383 161.879H687.905L675.213 144.942V161.879H672.795V140.783H675.303L687.995 157.751V140.783H690.383V161.879Z" fill="black"/>
<path d="M131.811 30.3751H78.5008V70.7972V84.0621H64.4409V16.8425H131.811V30.3751Z" fill="#165BBC"/>
<path d="M78.1786 103.52V155.801H133.774V169.157H64.1188V103.52H78.1786Z" fill="#165BBC"/>
<path d="M61.8299 50.1468H55.0677V87.5225H119.86V101.055H55.0677V150.85H41.0078V36.6142H61.8299V50.1468Z" fill="#165BBC"/>
<path d="M145.109 50.1468H81.229V36.6142H145.109V50.1468Z" fill="#165BBC"/>
</svg>
