<svg width="48" height="48" viewBox="0 0 48 48" fill="none" xmlns="http://www.w3.org/2000/svg">
<path d="M37.216 11.78C37.193 11.569 37.005 11.475 36.865 11.475C36.725 11.475 33.655 11.241 33.655 11.241C33.655 11.241 31.523 9.109 31.265 8.898C31.031 8.664 30.585 8.734 30.398 8.781C30.375 8.781 29.929 8.922 29.203 9.156C28.477 7.07 27.235 5.172 25.009 5.172H24.798C24.187 4.375 23.391 4 22.735 4C17.58 4 15.096 10.444 14.323 13.725C12.308 14.358 10.878 14.779 10.714 14.85C9.589 15.201 9.566 15.225 9.425 16.279C9.308 17.076 6.379 39.735 6.379 39.735L29.179 44L41.552 41.329C41.575 41.282 37.24 11.991 37.216 11.78ZM27.937 9.483C27.375 9.647 26.695 9.858 26.016 10.092V9.671C26.016 8.406 25.852 7.375 25.547 6.554C26.718 6.695 27.445 7.984 27.937 9.483ZM24.117 6.812C24.422 7.609 24.633 8.734 24.633 10.28V10.514C23.368 10.912 22.032 11.311 20.649 11.756C21.422 8.804 22.899 7.351 24.117 6.812ZM22.617 5.359C22.851 5.359 23.086 5.453 23.273 5.593C21.609 6.366 19.852 8.311 19.125 12.248C18.024 12.599 16.969 12.904 15.962 13.232C16.806 10.233 18.915 5.359 22.617 5.359Z" fill="#7CB342"/>
<path d="M36.865 11.428C36.724 11.428 33.655 11.194 33.655 11.194C33.655 11.194 31.523 9.062 31.265 8.851C31.17 8.757 31.053 8.71 30.96 8.71L29.249 44L41.622 41.329C41.622 41.329 37.287 11.991 37.263 11.78C37.169 11.569 37.005 11.475 36.865 11.428Z" fill="#558B2F"/>
<path d="M24.792 18.593L23.317 23.042C23.317 23.042 21.98 22.327 20.39 22.327C18.016 22.327 17.901 23.825 17.901 24.194C17.901 26.222 23.202 27.006 23.202 31.777C23.202 35.534 20.828 37.954 17.624 37.954C13.752 37.954 11.816 35.557 11.816 35.557L12.853 32.146C12.853 32.146 14.881 33.898 16.587 33.898C17.716 33.898 18.177 33.022 18.177 32.377C18.177 29.726 13.844 29.611 13.844 25.232C13.844 21.567 16.472 18.018 21.796 18.018C23.777 17.994 24.792 18.593 24.792 18.593Z" fill="white"/>
</svg>
