<svg width="48" height="48" viewBox="0 0 48 48" fill="none" xmlns="http://www.w3.org/2000/svg">
<path d="M17.2031 7.5C11.877 7.5 7.5 11.8711 7.5 17.2031V30.7969C7.5 36.123 11.8711 40.5 17.2031 40.5H30.7969C36.123 40.5 40.5 36.1289 40.5 30.7969V17.2031C40.5 11.877 36.1289 7.5 30.7969 7.5H17.2031ZM17.2031 10.5H30.7969C34.5059 10.5 37.5 13.4941 37.5 17.2031V30.7969C37.5 34.5059 34.5059 37.5 30.7969 37.5H17.2031C13.4941 37.5 10.5 34.5059 10.5 30.7969V17.2031C10.5 13.4941 13.4941 10.5 17.2031 10.5ZM32.8594 13.7812C32.1035 13.7812 31.5 14.3848 31.5 15.1406C31.5 15.8965 32.1035 16.5 32.8594 16.5C33.6152 16.5 34.2188 15.8965 34.2188 15.1406C34.2188 14.3848 33.6152 13.7812 32.8594 13.7812ZM24 15C19.0488 15 15 19.0488 15 24C15 28.9512 19.0488 33 24 33C28.9512 33 33 28.9512 33 24C33 19.0488 28.9512 15 24 15ZM24 18C27.334 18 30 20.666 30 24C30 27.334 27.334 30 24 30C20.666 30 18 27.334 18 24C18 20.666 20.666 18 24 18Z" fill="black"/>
</svg>
