<svg width="48" height="48" viewBox="0 0 48 48" fill="none" xmlns="http://www.w3.org/2000/svg">
<path d="M35.4286 5.71429H12.5714C8.78572 5.71429 5.71429 8.78572 5.71429 12.5714V35.4286C5.71429 39.2143 8.78572 42.2857 12.5714 42.2857H35.4286C39.2143 42.2857 42.2857 39.2143 42.2857 35.4286V12.5714C42.2857 8.78572 39.2143 5.71429 35.4286 5.71429ZM17.022 36.7582H11.3407L11.3077 19.7473H16.989L17.022 36.7582ZM14.0385 17.522H14.0055C12.1484 17.522 10.9506 16.2418 10.9506 14.6484C10.9506 13.0165 12.1868 11.7802 14.0769 11.7802C15.967 11.7802 17.1264 13.0165 17.1648 14.6484C17.1648 16.2418 15.9615 17.522 14.0385 17.522ZM36.7198 36.7582H30.989V27.5165C30.989 25.2802 30.3956 23.7582 28.3956 23.7582C26.8681 23.7582 26.044 24.7857 25.6484 25.7802C25.5 26.1374 25.4615 26.6264 25.4615 27.1264V36.7582H19.7033L19.6703 19.7473H25.4286L25.4615 22.1484C26.1978 21.011 27.4231 19.4011 30.3571 19.4011C33.9945 19.4011 36.7143 21.7747 36.7143 26.8791V36.7582H36.7198Z" fill="black"/>
</svg>
